<svg xmlns="http://www.w3.org/2000/svg" viewBox="0 0 464.62 281.17"><defs><style>.cls-1{fill:#ffc68d;}.cls-2{fill:#f91c46;}.cls-3{fill:#000201;}.cls-4{fill:#ff5f85;}.cls-5{fill:#fcb670;}.cls-6{fill:#ffe1c5;}.cls-11,.cls-12,.cls-7{fill:#d17828;}.cls-20,.cls-8{fill:#fff;}.cls-9{fill:#bfe2cf;}.cls-10{fill:#87cca5;}.cls-11{opacity:0.62;}.cls-12{opacity:0.73;}.cls-13{fill:#cacad8;}.cls-14{fill:#9d9dc6;}.cls-15,.cls-21{fill:#8080ba;}.cls-16{fill:#6f6372;}.cls-17{fill:#4c404f;}.cls-18{fill:#dcf0ff;}.cls-19,.cls-24,.cls-25{fill:#5ccde9;}.cls-20{opacity:0.53;}.cls-21,.cls-24{opacity:0.52;}.cls-22{fill:#e4e4ef;}.cls-23{fill:#e3ffef;}.cls-25{opacity:0.58;}.cls-26{fill:#3bb7cc;}.cls-27{fill:#ff3e6c;}.cls-28,.cls-29{fill:#b70034;}.cls-28{opacity:0.49;}.cls-30{fill:#2ff483;}.cls-31{fill:#61ffa1;}.cls-32,.cls-33{fill:#06cc56;}.cls-33{opacity:0.6;}</style></defs><g id="Layer_2" data-name="Layer 2"><g id="Layer_2-2" data-name="Layer 2"><path class="cls-1" d="M393.31,174.61h-9.92a3.51,3.51,0,0,1,0-7h9.92a3.51,3.51,0,0,1,0,7Z"/><polygon class="cls-2" points="355.05 167.31 355.5 190.06 384.63 190.06 384.63 167.4 355.05 167.31"/><path class="cls-3" d="M385,190.82H355.85a.76.76,0,0,1-.76-.76V168.23a.77.77,0,1,1,1.53,0v21.06h27.6v-20.9a.77.77,0,1,1,1.53,0v21.67A.76.76,0,0,1,385,190.82Z"/><circle class="cls-4" cx="364.49" cy="176.12" r="3.06"/><circle class="cls-4" cx="368.8" cy="180.79" r="1.66"/><rect class="cls-5" x="353.58" y="167.4" width="72.6" height="67.31"/><path class="cls-6" d="M388.92,174.31H365a3.51,3.51,0,0,1,0-7h23.93a3.51,3.51,0,1,1,0,7Z"/><path class="cls-1" d="M412.47,174.52h-9.92a3.51,3.51,0,0,1,0-7h9.92a3.51,3.51,0,0,1,0,7Z"/><path class="cls-7" d="M413.2,233.88H365.91a1.74,1.74,0,1,1,0-3.48H413.2a1.74,1.74,0,1,1,0,3.48Z"/><polygon class="cls-2" points="374.2 167.22 374.65 189.96 389.65 183.82 403.79 189.96 403.79 167.31 374.2 167.22"/><path class="cls-3" d="M375,190.73a.81.81,0,0,1-.42-.12.8.8,0,0,1-.34-.65V168.14a.77.77,0,1,1,1.53,0v20.65l13.28-5.86a.76.76,0,0,1,.61,0l13.71,5.88V168.29a.77.77,0,0,1,1.53,0V190a.77.77,0,0,1-1.07.71l-14.46-6.2-14.06,6.2A.81.81,0,0,1,375,190.73Z"/><path class="cls-3" d="M353.58,183.08a.9.9,0,0,1-.9-.9V167.4a.9.9,0,0,1,.9-.9h25.93a.9.9,0,1,1,0,1.8h-25v13.88A.9.9,0,0,1,353.58,183.08Z"/><circle class="cls-4" cx="384.01" cy="174.08" r="3.06"/><circle class="cls-4" cx="388.32" cy="178.75" r="1.66"/><path class="cls-3" d="M426.17,235.61H353.58a.9.9,0,0,1-.9-.9V193.88a.9.9,0,0,1,1.8,0v39.93h70.79V168.3H388.58a.9.9,0,1,1,0-1.8h37.59a.9.9,0,0,1,.9.9v67.31A.9.9,0,0,1,426.17,235.61Z"/><path class="cls-3" d="M413.16,221.32l-.14,0a.52.52,0,0,1-.36-.64l1.68-5.88a.52.52,0,0,1,.65-.36.52.52,0,0,1,.36.64l-1.69,5.88A.51.51,0,0,1,413.16,221.32Z"/><path class="cls-3" d="M415.29,225.37l-.14,0a.52.52,0,0,1-.36-.65L418.14,213a.51.51,0,0,1,.64-.36.52.52,0,0,1,.36.65L415.79,225A.51.51,0,0,1,415.29,225.37Z"/><path class="cls-3" d="M353.56,190.17a.9.9,0,0,1-.9-.9v-2.9a.9.9,0,1,1,1.8,0v2.9A.9.9,0,0,1,353.56,190.17Z"/><rect class="cls-8" x="360.06" y="209.28" width="28.24" height="16.24"/><path class="cls-3" d="M388.29,226H360.06a.77.77,0,0,1-.77-.77V209a.76.76,0,0,1,.77-.77h28.23a.77.77,0,0,1,.77.77v16.23A.78.78,0,0,1,388.29,226Zm-27.47-1.54h26.7v-14.7h-26.7Z"/><path class="cls-3" d="M381.75,214.5H364.9a.47.47,0,0,1,0-.94h16.85a.47.47,0,0,1,0,.94Z"/><path class="cls-3" d="M377.7,217.94H364.9a.47.47,0,0,1,0-.94h12.8a.47.47,0,0,1,0,.94Z"/><path class="cls-3" d="M372.48,221.37H364.9a.47.47,0,0,1,0-.94h7.58a.47.47,0,1,1,0,.94Z"/><polygon class="cls-9" points="403.01 121.36 372.75 121.36 375.75 100 400.01 100 403.01 121.36"/><path class="cls-10" d="M393.61,108.94H381.3a2,2,0,0,1,0-4h12.31a2,2,0,0,1,0,4Z"/><rect class="cls-5" x="24.18" y="53.23" width="38" height="35.23"/><path class="cls-6" d="M42.68,56.85H30.15a1.84,1.84,0,0,1,0-3.67H42.68a1.84,1.84,0,0,1,0,3.67Z"/><path class="cls-1" d="M55,57H49.81a1.84,1.84,0,0,1,0-3.67H55A1.84,1.84,0,0,1,55,57Z"/><path class="cls-7" d="M55.38,88.35H30.63a2.45,2.45,0,0,1,0-4.89H55.38a2.45,2.45,0,1,1,0,4.89Z"/><polygon class="cls-2" points="34.97 53.14 35.21 65.04 50.46 65.04 50.46 53.18 34.97 53.14"/><path class="cls-3" d="M50.64,65.94H35.4a.9.9,0,0,1-.9-.9V53.62a.9.9,0,0,1,1.8,0V64.14H49.74V53.7a.91.91,0,0,1,1.81,0V65A.9.9,0,0,1,50.64,65.94Z"/><path class="cls-3" d="M24.18,61.87a.9.9,0,0,1-.9-.9V53.23a.9.9,0,0,1,.9-.9H37.75a.9.9,0,0,1,0,1.8H25.08V61A.9.9,0,0,1,24.18,61.87Z"/><path class="cls-11" d="M60.06,78.64a2.45,2.45,0,0,1-2.45-2.44V64.52a2.45,2.45,0,0,1,4.89,0V76.2A2.44,2.44,0,0,1,60.06,78.64Z"/><path class="cls-11" d="M60.06,74.12a2.45,2.45,0,0,1-2.45-2.44V69.61a2.45,2.45,0,1,1,4.89,0v2.07A2.44,2.44,0,0,1,60.06,74.12Z"/><circle class="cls-4" cx="39.91" cy="57.75" r="1.6"/><circle class="cls-4" cx="42.17" cy="60.2" r="0.87"/><path class="cls-12" d="M47.54,76.91H37a1,1,0,0,1-.71-.29L32,72.4H24.24a1,1,0,1,1,0-2h8.19a1,1,0,0,1,.71.29l4.22,4.22H47.54a1,1,0,0,1,0,2Z"/><path class="cls-3" d="M62.17,89.37h-38a.9.9,0,0,1-.9-.91V67.1a.9.9,0,1,1,1.8,0V87.56H61.27V54.13H42.5a.9.9,0,0,1,0-1.8H62.17a.9.9,0,0,1,.9.9V88.46A.9.9,0,0,1,62.17,89.37Z"/><rect class="cls-5" x="84.79" y="53.23" width="38" height="35.23"/><path class="cls-1" d="M103.29,56.85H90.76a1.84,1.84,0,0,1,0-3.67h12.53a1.84,1.84,0,0,1,0,3.67Z"/><path class="cls-1" d="M115.61,57h-5.19a1.84,1.84,0,0,1,0-3.67h5.19a1.84,1.84,0,1,1,0,3.67Z"/><path class="cls-11" d="M121.09,78.64a2.44,2.44,0,0,1-2.44-2.44V64.52a2.45,2.45,0,0,1,4.89,0V76.2A2.45,2.45,0,0,1,121.09,78.64Z"/><path class="cls-11" d="M121.09,74.12a2.44,2.44,0,0,1-2.44-2.44V69.61a2.45,2.45,0,1,1,4.89,0v2.07A2.45,2.45,0,0,1,121.09,74.12Z"/><polygon class="cls-2" points="93.89 53.14 94.13 65.04 109.37 65.04 109.37 53.18 93.89 53.14"/><path class="cls-3" d="M109.56,65.94H94.31a.9.9,0,0,1-.9-.9V53.62a.91.91,0,0,1,1.81,0V64.14h13.44v-11a.9.9,0,1,1,1.8,0V65A.9.9,0,0,1,109.56,65.94Z"/><path class="cls-7" d="M116,88.35H91.25a2.45,2.45,0,1,1,0-4.89H116a2.45,2.45,0,1,1,0,4.89Z"/><polyline class="cls-13" points="50.28 21.34 61.34 32.4 61.34 44.52 54.28 44.52 54.28 36.3 47.36 29.38 37.6 29.38 30.68 36.3 30.68 44.74 23.61 44.74 23.61 32.4 34.68 21.34"/><path class="cls-3" d="M30.68,45.8H23.62a.9.9,0,0,1-.91-.9V32.4a.91.91,0,0,1,.27-.64L34,20.7A.91.91,0,0,1,35.32,22L24.52,32.77V44h6.16a.9.9,0,0,1,0,1.8Z"/><path class="cls-3" d="M61.34,45.8a.9.9,0,0,1-.9-.9V32.77L49.64,22a.91.91,0,0,1,1.28-1.28L62,31.76a.9.9,0,0,1,.26.64V44.9A.9.9,0,0,1,61.34,45.8Z"/><path class="cls-3" d="M30.68,45.8a.9.9,0,0,1-.9-.9V36.3a.9.9,0,0,1,.26-.64L37,28.74a.91.91,0,0,1,1.28,0,.9.9,0,0,1,0,1.27l-6.66,6.66V44.9A.9.9,0,0,1,30.68,45.8Z"/><path class="cls-3" d="M61.34,45.8H54.28a.9.9,0,0,1-.9-.9V36.67L46.72,30a.9.9,0,0,1,0-1.27.91.91,0,0,1,1.28,0l6.92,6.92a.9.9,0,0,1,.26.64V44h6.16a.9.9,0,1,1,0,1.8Z"/><rect class="cls-13" x="38.13" y="0.9" width="8.75" height="28.1"/><rect class="cls-8" x="38.13" y="0.9" width="8.75" height="2.85"/><path class="cls-3" d="M46.88,29.9H38.13a.91.91,0,0,1-.9-.9V14.69a.91.91,0,0,1,1.81,0V28.1H46V1.8H39V8.85a.91.91,0,0,1-1.81,0V.9a.9.9,0,0,1,.9-.9h8.75a.9.9,0,0,1,.9.9V29A.9.9,0,0,1,46.88,29.9Z"/><circle class="cls-3" cx="42.49" cy="10.23" r="1.33"/><circle class="cls-3" cx="42.53" cy="20.71" r="1.33"/><circle class="cls-3" cx="42.53" cy="15.47" r="1.33"/><path class="cls-14" d="M27,43a1,1,0,0,1-1-1V34.28a1,1,0,0,1,.31-.74l7.78-7.64a1,1,0,1,1,1.44,1.47l-7.46,7.34v7.22A1,1,0,0,1,27,43Z"/><path class="cls-14" d="M57.67,43a1,1,0,0,1-1-1V34.71l-7.47-7.34a1,1,0,0,1,1.45-1.47l7.77,7.64a1,1,0,0,1,.31.74v7.65A1,1,0,0,1,57.67,43Z"/><polyline class="cls-13" points="110.63 21.34 121.69 32.4 121.69 44.52 114.63 44.52 114.63 36.3 107.71 29.38 97.95 29.38 91.03 36.3 91.03 44.74 83.96 44.74 83.96 32.4 95.03 21.34"/><path class="cls-3" d="M91,45.8H84a.9.9,0,0,1-.9-.9V32.4a.91.91,0,0,1,.27-.64L94.39,20.7A.9.9,0,1,1,95.66,22L84.87,32.77V44H91a.9.9,0,1,1,0,1.8Z"/><path class="cls-3" d="M121.69,45.8a.9.9,0,0,1-.9-.9V32.77L110,22a.91.91,0,0,1,1.28-1.28l11.06,11.06a.9.9,0,0,1,.26.64V44.9A.9.9,0,0,1,121.69,45.8Z"/><path class="cls-3" d="M91,45.8a.9.9,0,0,1-.9-.9V36.3a.91.91,0,0,1,.27-.64l6.92-6.92a.9.9,0,0,1,1.27,0,.88.88,0,0,1,0,1.27l-6.65,6.66V44.9A.9.9,0,0,1,91,45.8Z"/><path class="cls-3" d="M121.69,45.8h-7.06a.9.9,0,0,1-.9-.9V36.67L107.07,30a.9.9,0,0,1,0-1.27.91.91,0,0,1,1.28,0l6.92,6.92a.9.9,0,0,1,.26.64V44h6.16a.9.9,0,1,1,0,1.8Z"/><rect class="cls-13" x="98.48" y="0.9" width="8.75" height="28.1"/><rect class="cls-8" x="98.48" y="0.9" width="8.75" height="2.85"/><path class="cls-3" d="M107.23,29.9H98.48a.9.9,0,0,1-.9-.9V14.69a.9.9,0,1,1,1.8,0V28.1h7V1.8h-7V8.85a.9.9,0,1,1-1.8,0V.9a.9.9,0,0,1,.9-.9h8.75a.9.9,0,0,1,.9.9V29A.9.9,0,0,1,107.23,29.9Z"/><circle class="cls-3" cx="102.83" cy="10.23" r="1.33"/><circle class="cls-3" cx="102.88" cy="20.71" r="1.33"/><circle class="cls-3" cx="102.88" cy="15.47" r="1.33"/><path class="cls-14" d="M87.37,43a1,1,0,0,1-1-1V34.28a1,1,0,0,1,.31-.74l7.77-7.64a1,1,0,1,1,1.45,1.47L88.4,34.71v7.22A1,1,0,0,1,87.37,43Z"/><path class="cls-14" d="M118,43a1,1,0,0,1-1-1V34.71l-7.47-7.34A1,1,0,0,1,111,25.9l7.77,7.64a1,1,0,0,1,.31.74v7.65A1,1,0,0,1,118,43Z"/><circle class="cls-4" cx="98.64" cy="57.75" r="1.6"/><circle class="cls-4" cx="100.9" cy="60.2" r="0.87"/><path class="cls-3" d="M84.79,65.87a.9.9,0,0,1-.9-.9V53.23a.9.9,0,0,1,.9-.9H98.36a.9.9,0,1,1,0,1.8H85.69V65A.9.9,0,0,1,84.79,65.87Z"/><path class="cls-12" d="M108,76.91H97.37a1,1,0,0,1-.7-.29L92.44,72.4H85.67a1,1,0,1,1,0-2h7.19a1,1,0,0,1,.7.29l4.23,4.22H108a1,1,0,1,1,0,2Z"/><path class="cls-3" d="M122.79,89.37h-38a.9.9,0,0,1-.9-.91V70.1a.9.9,0,1,1,1.8,0V87.56h36.19V54.13H103.11a.9.9,0,0,1,0-1.8h19.68a.9.9,0,0,1,.9.9V88.46A.91.91,0,0,1,122.79,89.37Z"/><rect class="cls-13" x="0.9" y="87.23" width="147.02" height="38.21" rx="19.1"/><path class="cls-15" d="M128.7,126.37H20.12A19.54,19.54,0,0,1,.61,106.85v-.49A19.54,19.54,0,0,1,20.12,86.84H128.7a19.55,19.55,0,0,1,19.52,19.52v.49A19.55,19.55,0,0,1,128.7,126.37ZM20.12,90.82A15.55,15.55,0,0,0,4.59,106.36v.49a15.55,15.55,0,0,0,15.53,15.54H128.7a15.56,15.56,0,0,0,15.54-15.54v-.49A15.56,15.56,0,0,0,128.7,90.82Z"/><path class="cls-3" d="M128.82,126.34H20a20,20,0,0,1,0-40H35.49a.9.9,0,1,1,0,1.8H20a18.21,18.21,0,0,0,0,36.41H128.82a18.21,18.21,0,0,0,0-36.41H77.47a.9.9,0,1,1,0-1.8h51.35a20,20,0,0,1,0,40Z"/><rect class="cls-16" x="8.75" y="93.87" width="131.33" height="24.36" rx="12.18"/><rect class="cls-16" x="9.03" y="93.87" width="131.33" height="24.36" rx="12.18"/><path class="cls-17" d="M64,118.64H47.73a1.5,1.5,0,0,1,0-3H64a1.5,1.5,0,0,1,0,3Z"/><path class="cls-17" d="M33,118.73h0l-12.29-.09a1.52,1.52,0,0,1-1.49-1.52,1.5,1.5,0,0,1,1.52-1.48l12.28.09a1.5,1.5,0,0,1,0,3Z"/><path class="cls-17" d="M128.24,118.73h0L116,118.64a1.5,1.5,0,0,1,0-3h0l12.29.09a1.5,1.5,0,0,1,0,3Z"/><path class="cls-17" d="M114,118.64H93.09a1.5,1.5,0,0,1,0-3H114a1.5,1.5,0,0,1,0,3Z"/><path class="cls-17" d="M102.46,97.46h-12a1.5,1.5,0,0,1,0-3h12a1.5,1.5,0,0,1,0,3Z"/><path class="cls-17" d="M59.82,97.46h-12a1.5,1.5,0,1,1,0-3h12a1.5,1.5,0,1,1,0,3Z"/><path class="cls-3" d="M127.9,119.42h-107a13.09,13.09,0,1,1,0-26.17h107a13.09,13.09,0,0,1,0,26.17Zm-107-24.36a11.28,11.28,0,1,0,0,22.55h107a11.28,11.28,0,1,0,0-22.55Z"/><circle class="cls-13" cx="35.39" cy="106.24" r="11.37"/><path class="cls-3" d="M35.39,118.29A12.18,12.18,0,0,1,24,110.55a.87.87,0,1,1,1.62-.64,10.5,10.5,0,1,0-.73-3.86.88.88,0,1,1-1.75,0,12.25,12.25,0,1,1,12.25,12.24Z"/><circle class="cls-8" cx="35.39" cy="106.15" r="5.27"/><path class="cls-3" d="M35.34,112.19A6.15,6.15,0,1,1,41.49,106,6.15,6.15,0,0,1,35.34,112.19Zm0-10.55a4.4,4.4,0,1,0,4.4,4.4A4.4,4.4,0,0,0,35.34,101.64Z"/><circle class="cls-13" cx="117.64" cy="106.24" r="11.37"/><path class="cls-3" d="M117.64,118.29a12.24,12.24,0,1,1,12.24-12.24A12.25,12.25,0,0,1,117.64,118.29Zm0-22.73a10.49,10.49,0,1,0,10.5,10.49A10.51,10.51,0,0,0,117.64,95.56Z"/><circle class="cls-8" cx="117.64" cy="106.15" r="5.27"/><path class="cls-3" d="M117.64,112.2a6.15,6.15,0,1,1,6.15-6.15A6.15,6.15,0,0,1,117.64,112.2Zm0-10.55a4.4,4.4,0,1,0,4.4,4.4A4.4,4.4,0,0,0,117.64,101.65Z"/><circle class="cls-13" cx="76.51" cy="106.24" r="11.37"/><path class="cls-3" d="M76.51,118.29a12.24,12.24,0,1,1,12.25-12.24A12.25,12.25,0,0,1,76.51,118.29Zm0-22.73A10.49,10.49,0,1,0,87,106.05,10.51,10.51,0,0,0,76.51,95.56Z"/><circle class="cls-8" cx="76.51" cy="106.15" r="5.27"/><path class="cls-3" d="M76.51,112.2a6.16,6.16,0,0,1-6.14-6.15.88.88,0,0,1,1.75,0,4.4,4.4,0,1,0,4.39-4.4.87.87,0,0,1,0-1.74,6.15,6.15,0,1,1,0,12.29Z"/><path class="cls-8" d="M29,103.7a3.31,3.31,0,0,1,.12-.42,1.42,1.42,0,0,1,.07-.22s.15-.37,0-.1,0,0,0-.07l.1-.21c.07-.14.15-.28.23-.42s.19-.3.29-.44.11-.13.15-.2c-.09.14-.18.23,0,0a10,10,0,0,1,.71-.75l.41-.35c.25-.2-.29.21,0,0l.22-.16a7.42,7.42,0,0,1,1-.58l.26-.12.18-.08-.18.07c0-.08.48-.18.56-.21a10,10,0,0,1,1.31-.33,1.49,1.49,0,0,0,1-1.84,1.54,1.54,0,0,0-1.84-1c-3.43.62-6.7,3.14-7.54,6.62a1.5,1.5,0,1,0,2.89.8Z"/><circle class="cls-8" cx="37.99" cy="97.98" r="1.55"/><path class="cls-8" d="M111.6,103.7c0-.14.07-.28.11-.42s.05-.15.08-.22.15-.37,0-.1,0,0,0-.07a2,2,0,0,1,.1-.21c.07-.14.15-.28.23-.42s.19-.3.29-.44.11-.13.15-.2c-.09.14-.18.23,0,0a10.16,10.16,0,0,1,.72-.75l.4-.35c.25-.2-.28.21,0,0l.22-.16a8,8,0,0,1,1-.58l.27-.12.17-.08-.17.07c0-.08.48-.18.56-.21a10,10,0,0,1,1.31-.33,1.5,1.5,0,0,0,1-1.84,1.54,1.54,0,0,0-1.84-1c-3.43.62-6.7,3.14-7.55,6.62a1.5,1.5,0,0,0,2.9.8Z"/><circle class="cls-8" cx="120.57" cy="97.98" r="1.55"/><path class="cls-3" d="M67.3,88.13H43.91a.9.9,0,0,1,0-1.8H67.3a.9.9,0,1,1,0,1.8Z"/><circle class="cls-3" cx="35.34" cy="106.04" r="2.13"/><circle class="cls-3" cx="76.38" cy="106.04" r="2.13"/><circle class="cls-3" cx="117.6" cy="106.04" r="2.13"/><circle class="cls-3" cx="71.96" cy="86.85" r="1.33"/><rect class="cls-13" x="316.7" y="242.03" width="147.02" height="38.21" rx="19.1"/><path class="cls-15" d="M444.5,281.17H335.92a19.54,19.54,0,0,1-19.52-19.52v-.49a19.54,19.54,0,0,1,19.52-19.51H444.5A19.54,19.54,0,0,1,464,261.16v.49A19.54,19.54,0,0,1,444.5,281.17ZM335.92,245.62a15.56,15.56,0,0,0-15.54,15.54v.49a15.56,15.56,0,0,0,15.54,15.54H444.5A15.56,15.56,0,0,0,460,261.65v-.49a15.56,15.56,0,0,0-15.54-15.54Z"/><path class="cls-3" d="M444.62,281.14H335.8a20,20,0,0,1,0-40h15.49a.91.91,0,0,1,0,1.81H335.8a18.2,18.2,0,0,0,0,36.4H444.62a18.2,18.2,0,0,0,0-36.4H393.27a.91.91,0,1,1,0-1.81h51.35a20,20,0,0,1,0,40Z"/><rect class="cls-16" x="324.54" y="248.67" width="131.33" height="24.36" rx="12.18"/><rect class="cls-16" x="324.83" y="248.67" width="131.33" height="24.36" rx="12.18"/><path class="cls-17" d="M379.79,273.44H363.52a1.5,1.5,0,0,1,0-3h16.27a1.5,1.5,0,0,1,0,3Z"/><path class="cls-17" d="M348.79,273.53h0l-12.28-.09a1.5,1.5,0,0,1,0-3h0l12.29.09a1.5,1.5,0,0,1,0,3Z"/><path class="cls-17" d="M444,273.53h0l-12.28-.09a1.5,1.5,0,1,1,0-3l12.28.09a1.5,1.5,0,0,1,0,3Z"/><path class="cls-17" d="M429.82,273.44H408.89a1.5,1.5,0,0,1,0-3h20.93a1.5,1.5,0,0,1,0,3Z"/><path class="cls-17" d="M418.25,252.26h-12a1.5,1.5,0,0,1,0-3h12a1.5,1.5,0,0,1,0,3Z"/><path class="cls-17" d="M375.62,252.26H363.57a1.5,1.5,0,1,1,0-3h12.05a1.5,1.5,0,0,1,0,3Z"/><path class="cls-3" d="M443.69,274.22h-107a13.08,13.08,0,0,1,0-26.16h107a13.08,13.08,0,1,1,0,26.16Zm-107-24.36a11.28,11.28,0,0,0,0,22.56h107a11.28,11.28,0,1,0,0-22.56Z"/><circle class="cls-13" cx="351.18" cy="261.04" r="11.37"/><path class="cls-3" d="M351.18,273.09a12.17,12.17,0,0,1-11.39-7.74.88.88,0,0,1,.5-1.13.87.87,0,0,1,1.13.49,10.5,10.5,0,1,0-.73-3.86.88.88,0,1,1-1.75,0,12.24,12.24,0,1,1,12.24,12.24Z"/><circle class="cls-8" cx="351.18" cy="260.95" r="5.27"/><path class="cls-3" d="M351.14,267a6.15,6.15,0,1,1,6.15-6.15A6.15,6.15,0,0,1,351.14,267Zm0-10.54a4.4,4.4,0,1,0,4.4,4.39A4.4,4.4,0,0,0,351.14,256.45Z"/><circle class="cls-13" cx="433.44" cy="261.04" r="11.37"/><path class="cls-3" d="M433.44,273.09a12.24,12.24,0,1,1,12.24-12.24A12.25,12.25,0,0,1,433.44,273.09Zm0-22.73a10.5,10.5,0,1,0,10.49,10.49A10.51,10.51,0,0,0,433.44,250.36Z"/><circle class="cls-8" cx="433.44" cy="260.95" r="5.27"/><path class="cls-3" d="M433.44,267a6.15,6.15,0,1,1,6.15-6.15A6.16,6.16,0,0,1,433.44,267Zm0-10.54a4.4,4.4,0,1,0,4.4,4.39A4.4,4.4,0,0,0,433.44,256.46Z"/><circle class="cls-13" cx="392.31" cy="261.04" r="11.37"/><path class="cls-3" d="M392.31,273.09a12.24,12.24,0,1,1,12.24-12.24A12.25,12.25,0,0,1,392.31,273.09Zm0-22.73a10.5,10.5,0,1,0,10.49,10.49A10.51,10.51,0,0,0,392.31,250.36Z"/><circle class="cls-8" cx="392.31" cy="260.95" r="5.27"/><path class="cls-3" d="M392.31,267a6.15,6.15,0,0,1-6.14-6.15.87.87,0,0,1,1.74,0,4.4,4.4,0,1,0,4.4-4.39.88.88,0,0,1,0-1.75,6.15,6.15,0,1,1,0,12.29Z"/><path class="cls-8" d="M344.81,258.5c0-.14.07-.28.11-.42s.05-.15.08-.22.15-.37,0-.1,0,0,0-.07l.11-.21c.07-.14.15-.28.23-.41s.19-.3.29-.45a1.49,1.49,0,0,0,.15-.2c-.09.15-.18.23,0,0a10.16,10.16,0,0,1,.72-.75l.4-.35c.25-.2-.28.21,0,0l.22-.16a9.56,9.56,0,0,1,1-.58l.26-.12.18-.08-.17.07c0-.08.48-.18.56-.21a10,10,0,0,1,1.31-.33,1.5,1.5,0,0,0,1.05-1.84,1.55,1.55,0,0,0-1.85-1c-3.42.62-6.69,3.14-7.54,6.62a1.5,1.5,0,0,0,2.9.8Z"/><circle class="cls-8" cx="353.78" cy="252.79" r="1.55"/><path class="cls-8" d="M427.39,258.5l.12-.42.07-.22,0-.1c-.11.26,0,0,0-.07l.11-.21c.07-.14.15-.28.23-.41s.19-.3.29-.45l.15-.2c-.09.15-.18.23,0,0a8.44,8.44,0,0,1,.72-.75l.4-.35c.25-.2-.28.21,0,0l.22-.16a9.56,9.56,0,0,1,1-.58l.26-.12.18-.08-.18.07c0-.08.48-.18.57-.21a10,10,0,0,1,1.31-.33,1.51,1.51,0,0,0,1.05-1.84,1.55,1.55,0,0,0-1.85-1c-3.42.62-6.69,3.14-7.54,6.62a1.5,1.5,0,1,0,2.89.8Z"/><circle class="cls-8" cx="436.37" cy="252.79" r="1.55"/><path class="cls-3" d="M383.1,242.94H359.71a.91.91,0,0,1,0-1.81H383.1a.91.91,0,0,1,0,1.81Z"/><circle class="cls-3" cx="351.14" cy="260.84" r="2.13"/><circle class="cls-3" cx="392.18" cy="260.84" r="2.13"/><circle class="cls-3" cx="433.4" cy="260.84" r="2.13"/><circle class="cls-3" cx="387.76" cy="241.66" r="1.33"/><rect class="cls-13" x="226.08" y="101.65" width="14.4" height="14.76"/><path class="cls-15" d="M239.51,111.56h-12.3a1.89,1.89,0,0,1,0-3.78h12.3a1.89,1.89,0,1,1,0,3.78Z"/><path class="cls-3" d="M240.47,118.21H226.08a.85.85,0,0,1-.85-.85V102.6a.86.86,0,0,1,.85-.86h14.39a.87.87,0,0,1,.86.86v14.76A.86.86,0,0,1,240.47,118.21Zm-13.54-1.7h12.69V103.45H226.93Z"/><rect class="cls-13" x="172.17" y="13.51" width="122.21" height="94.65" rx="7.13"/><rect class="cls-18" x="179.27" y="20.94" width="108.01" height="80.85" rx="3.11"/><rect class="cls-13" x="210.51" y="116.6" width="45.54" height="8.53" rx="4.27"/><path class="cls-19" d="M265.74,100.54H252.3a1.89,1.89,0,0,1,0-3.78h13.44a1.89,1.89,0,0,1,0,3.78Z"/><path class="cls-20" d="M260.58,100.54h-2.65a1.89,1.89,0,1,1,0-3.78h2.65a1.89,1.89,0,1,1,0,3.78Z"/><path class="cls-19" d="M274.35,24.56h-8.72a1.89,1.89,0,1,1,0-3.78h8.72a1.89,1.89,0,0,1,0,3.78Z"/><path class="cls-19" d="M285.37,100.54h-8.72a1.89,1.89,0,1,1,0-3.78h8.72a1.89,1.89,0,0,1,0,3.78Z"/><path class="cls-19" d="M243,100.54H180.37a1.89,1.89,0,0,1,0-3.78H243a1.89,1.89,0,0,1,0,3.78Z"/><polygon class="cls-8" points="216.8 101.32 212.66 101.32 227.55 20.67 231.69 20.67 216.8 101.32"/><polygon class="cls-8" points="240.47 101.32 223.09 101.32 237.99 20.67 255.36 20.67 240.47 101.32"/><path class="cls-3" d="M188.32,40.2a.69.69,0,0,1-.2,0,.72.72,0,0,1-.49-.89l2.31-8a.72.72,0,0,1,1.38.39L189,39.68A.73.73,0,0,1,188.32,40.2Z"/><path class="cls-3" d="M191.24,45.74a.69.69,0,0,1-.2,0,.71.71,0,0,1-.49-.88l4.59-16a.73.73,0,0,1,.88-.49.72.72,0,0,1,.49.89l-4.58,16A.73.73,0,0,1,191.24,45.74Z"/><path class="cls-3" d="M172.15,56.49a.85.85,0,0,1-.85-.85V50a.85.85,0,1,1,1.7,0v5.69A.85.85,0,0,1,172.15,56.49Z"/><path class="cls-3" d="M287.22,52.08a.85.85,0,0,1-.85-.85V46.48a.85.85,0,0,1,1.7,0v4.75A.85.85,0,0,1,287.22,52.08Z"/><path class="cls-21" d="M250.09,125.16H239.28a1.89,1.89,0,0,1,0-3.78h10.81a1.89,1.89,0,0,1,0,3.78Z"/><path class="cls-15" d="M204.81,104.4H194a1.89,1.89,0,1,1,0-3.78h10.81a1.89,1.89,0,0,1,0,3.78Z"/><path class="cls-15" d="M269.06,104.4h-10.8a1.89,1.89,0,1,1,0-3.78h10.8a1.89,1.89,0,0,1,0,3.78Z"/><path class="cls-15" d="M246.5,104.4H215.86a1.89,1.89,0,0,1,0-3.78H246.5a1.89,1.89,0,0,1,0,3.78Z"/><path class="cls-3" d="M251.78,126h-37a5.12,5.12,0,0,1,0-10.24.85.85,0,0,1,.85.85.86.86,0,0,1-.85.86,3.41,3.41,0,1,0,0,6.82h37a3.41,3.41,0,0,0,0-6.82H220.05a.86.86,0,0,1-.85-.86.85.85,0,0,1,.85-.85h31.73a5.12,5.12,0,0,1,0,10.24Z"/><path class="cls-22" d="M230,19.5H207.79a2.86,2.86,0,1,1,0-5.72H230a2.86,2.86,0,1,1,0,5.72Z"/><path class="cls-22" d="M248.64,19.5h-8.06a2.86,2.86,0,0,1,0-5.72h8.06a2.86,2.86,0,1,1,0,5.72Z"/><path class="cls-22" d="M198.52,19.5h-8.06a2.86,2.86,0,0,1,0-5.72h8.06a2.86,2.86,0,0,1,0,5.72Z"/><path class="cls-8" d="M222,19.5h-6.17a2.86,2.86,0,0,1,0-5.72H222a2.86,2.86,0,1,1,0,5.72Z"/><path class="cls-3" d="M287.25,109H179.3a8,8,0,0,1-8-8V60.82a.85.85,0,1,1,1.7,0V101a6.29,6.29,0,0,0,6.28,6.28h108a6.28,6.28,0,0,0,6.28-6.28V20.64a6.28,6.28,0,0,0-6.28-6.28H179.3A6.29,6.29,0,0,0,173,20.64V44.26a.85.85,0,0,1-1.7,0V20.64a8,8,0,0,1,8-8h108a8,8,0,0,1,8,8V101A8,8,0,0,1,287.25,109Z"/><path class="cls-3" d="M287.28,41.74a.85.85,0,0,1-.85-.85V23.52a2.26,2.26,0,0,0-2.26-2.26H182.38a2.26,2.26,0,0,0-2.26,2.26V34.31a.85.85,0,1,1-1.7,0V23.52a4,4,0,0,1,4-4H284.17a4,4,0,0,1,4,4V40.89A.85.85,0,0,1,287.28,41.74Z"/><path class="cls-3" d="M179.27,69.64a.85.85,0,0,1-.85-.85V41.42a.85.85,0,1,1,1.7,0V68.79A.85.85,0,0,1,179.27,69.64Z"/><path class="cls-3" d="M284.17,102.12H182.38a4,4,0,0,1-4-4V75.26a.85.85,0,0,1,1.7,0v22.9a2.26,2.26,0,0,0,2.26,2.25H284.17a2.26,2.26,0,0,0,2.26-2.25V59.5a.85.85,0,0,1,1.7,0V98.16A4,4,0,0,1,284.17,102.12Z"/><path class="cls-8" d="M175.88,44A1.89,1.89,0,0,1,174,42.13V23.29a1.89,1.89,0,0,1,3.78,0V42.13A1.89,1.89,0,0,1,175.88,44Z"/><rect class="cls-13" x="11.24" y="183.46" width="116.58" height="73.29" rx="6.8" transform="translate(289.64 150.57) rotate(90)"/><rect class="cls-18" x="17.51" y="190.04" width="103.03" height="60.13" rx="2.96" transform="translate(289.13 151.08) rotate(90)"/><path class="cls-19" d="M42,271.6a1.8,1.8,0,0,1-1.8-1.8v-8.32a1.8,1.8,0,1,1,3.6,0v8.32A1.81,1.81,0,0,1,42,271.6Z"/><path class="cls-19" d="M42,252.88a1.8,1.8,0,0,1-1.8-1.81V238.25a1.8,1.8,0,1,1,3.6,0v12.82A1.81,1.81,0,0,1,42,252.88Z"/><path class="cls-20" d="M42,248a1.8,1.8,0,0,1-1.8-1.8v-2.53a1.8,1.8,0,1,1,3.6,0v2.53A1.81,1.81,0,0,1,42,248Z"/><path class="cls-19" d="M42,231.18a1.79,1.79,0,0,1-1.8-1.8V169.64a1.8,1.8,0,1,1,3.6,0v59.74A1.8,1.8,0,0,1,42,231.18Z"/><polygon class="cls-8" points="80.5 169.37 84.44 169.37 70.24 271.97 66.29 271.97 80.5 169.37"/><polygon class="cls-8" points="57.92 169.37 74.49 169.37 60.29 271.97 44.72 271.97 57.92 169.37"/><path class="cls-3" d="M75.42,162.61H70a.81.81,0,0,1-.81-.81A.82.82,0,0,1,70,161h5.43a.82.82,0,0,1,.81.82A.81.81,0,0,1,75.42,162.61Z"/><path class="cls-3" d="M78.72,272.37H74.2a.81.81,0,1,1,0-1.62h4.52a.81.81,0,0,1,0,1.62Z"/><path class="cls-3" d="M77.65,268.27H61.12a.67.67,0,0,1,0-1.33H77.65a.67.67,0,0,1,0,1.33Z"/><path class="cls-15" d="M38.28,194.75a1.8,1.8,0,0,1-1.8-1.8V182.64a1.8,1.8,0,1,1,3.6,0V193A1.79,1.79,0,0,1,38.28,194.75Z"/><path class="cls-15" d="M38.28,256a1.8,1.8,0,0,1-1.8-1.8V243.93a1.8,1.8,0,1,1,3.6,0v10.31A1.79,1.79,0,0,1,38.28,256Z"/><path class="cls-15" d="M38.28,234.52a1.8,1.8,0,0,1-1.8-1.8V203.5a1.8,1.8,0,1,1,3.6,0v29.22A1.79,1.79,0,0,1,38.28,234.52Z"/><path class="cls-22" d="M103.19,219.72a2.73,2.73,0,0,1-2.73-2.73v-21.2a2.73,2.73,0,0,1,5.46,0V217A2.73,2.73,0,0,1,103.19,219.72Z"/><path class="cls-22" d="M103.19,237.49a2.73,2.73,0,0,1-2.73-2.73v-7.69a2.73,2.73,0,0,1,5.46,0v7.69A2.73,2.73,0,0,1,103.19,237.49Z"/><path class="cls-22" d="M103.19,189.68a2.73,2.73,0,0,1-2.73-2.73v-7.69a2.73,2.73,0,0,1,5.46,0V187A2.73,2.73,0,0,1,103.19,189.68Z"/><path class="cls-8" d="M103.19,212.06a2.73,2.73,0,0,1-2.73-2.73v-5.89a2.73,2.73,0,0,1,5.46,0v5.89A2.73,2.73,0,0,1,103.19,212.06Z"/><path class="cls-8" d="M52.11,168.36h-9a3,3,0,1,1,0-6h9a3,3,0,1,1,0,6Z"/><path class="cls-3" d="M403,122.22H372.75a.86.86,0,0,1-.84-1l3-21.37a.86.86,0,0,1,.84-.74H400a.86.86,0,0,1,.85.74l3,21.37a.86.86,0,0,1-.2.67A.87.87,0,0,1,403,122.22Zm-29.28-1.71H402l-2.76-19.66H376.49Z"/><path class="cls-3" d="M412.75,122.22H406a.86.86,0,0,1-.85-.86.85.85,0,0,1,.85-.85h6.74a.85.85,0,0,1,.85.85A.86.86,0,0,1,412.75,122.22Z"/><path class="cls-3" d="M369.69,122.22H363a.86.86,0,0,1-.85-.86.85.85,0,0,1,.85-.85h6.74a.86.86,0,1,1,0,1.71Z"/><rect class="cls-9" x="325.77" y="12.95" width="122.21" height="91.65" rx="7.13"/><rect class="cls-18" x="332.87" y="20.38" width="108.01" height="77.85" rx="3.11"/><path class="cls-19" d="M428,24h-8.72a1.89,1.89,0,0,1,0-3.78H428A1.89,1.89,0,0,1,428,24Z"/><polygon class="cls-8" points="370.4 97.75 366.26 97.75 381.15 20.11 385.29 20.11 370.4 97.75"/><polygon class="cls-8" points="394.07 97.75 376.69 97.75 391.58 20.11 408.96 20.11 394.07 97.75"/><path class="cls-3" d="M325.75,55.93a.86.86,0,0,1-.85-.86V49.39a.85.85,0,1,1,1.7,0v5.68A.86.86,0,0,1,325.75,55.93Z"/><path class="cls-3" d="M440.82,51.52a.87.87,0,0,1-.86-.86V45.92a.86.86,0,0,1,.86-.85.85.85,0,0,1,.85.85v4.74A.86.86,0,0,1,440.82,51.52Z"/><path class="cls-3" d="M440.82,77.93a.86.86,0,0,1-.86-.85V55.33a.86.86,0,0,1,.86-.85.85.85,0,0,1,.85.85V77.08A.85.85,0,0,1,440.82,77.93Z"/><path class="cls-23" d="M383.61,18.58H361.39a2.5,2.5,0,0,1,0-5h22.22a2.5,2.5,0,1,1,0,5Z"/><path class="cls-23" d="M402.24,18.58h-8.06a2.5,2.5,0,0,1,0-5h8.06a2.5,2.5,0,1,1,0,5Z"/><path class="cls-23" d="M352.12,18.58h-8.06a2.5,2.5,0,0,1,0-5h8.06a2.5,2.5,0,1,1,0,5Z"/><path class="cls-8" d="M375.58,18.93h-6.17a2.86,2.86,0,1,1,0-5.71h6.17a2.86,2.86,0,1,1,0,5.71Z"/><path class="cls-3" d="M440.85,105.45h-108a8,8,0,0,1-8-8V60.25a.85.85,0,0,1,1.7,0V97.47a6.29,6.29,0,0,0,6.28,6.28h108a6.29,6.29,0,0,0,6.28-6.28V20.08a6.29,6.29,0,0,0-6.28-6.28h-108a6.29,6.29,0,0,0-6.28,6.28V43.7a.85.85,0,1,1-1.7,0V20.08a8,8,0,0,1,8-8h108a8,8,0,0,1,8,8V97.47A8,8,0,0,1,440.85,105.45Z"/><path class="cls-3" d="M440.88,41.17a.85.85,0,0,1-.85-.85V23a2.26,2.26,0,0,0-2.26-2.25H336A2.26,2.26,0,0,0,333.72,23V33.74a.85.85,0,1,1-1.7,0V23a4,4,0,0,1,4-4H437.77a4,4,0,0,1,4,4V40.32A.85.85,0,0,1,440.88,41.17Z"/><path class="cls-3" d="M332.87,78.08a.85.85,0,0,1-.85-.85V40.85a.85.85,0,0,1,1.7,0V77.23A.85.85,0,0,1,332.87,78.08Z"/><path class="cls-9" d="M441.16,82.69v12.7A3.18,3.18,0,0,1,438,98.61H335.29a3.18,3.18,0,0,1-3.14-3.22V82.69Z"/><path class="cls-10" d="M429.28,87.1H417a2,2,0,0,1,0-4h12.3a2,2,0,0,1,0,4Z"/><path class="cls-10" d="M405.94,87.1H363.63a2,2,0,0,1,0-4h42.31a2,2,0,0,1,0,4Z"/><path class="cls-10" d="M351.14,87.21H338.83a2,2,0,0,1,0-4h12.31a2,2,0,0,1,0,4Z"/><ellipse class="cls-8" cx="387.96" cy="93.42" rx="3.95" ry="3.72"/><path class="cls-3" d="M388,98.33a5.24,5.24,0,1,1,5.24-5.24A5.25,5.25,0,0,1,388,98.33Zm0-8.77a3.53,3.53,0,1,0,3.53,3.53A3.53,3.53,0,0,0,388,89.56Z"/><path class="cls-19" d="M355.39,81.85H342a1.89,1.89,0,1,1,0-3.78h13.44a1.89,1.89,0,0,1,0,3.78Z"/><path class="cls-20" d="M350.23,81.85h-2.65a1.89,1.89,0,0,1,0-3.78h2.65a1.89,1.89,0,0,1,0,3.78Z"/><path class="cls-19" d="M432.9,81.62H405.18a1.89,1.89,0,1,1,0-3.77H432.9a1.89,1.89,0,1,1,0,3.77Z"/><path class="cls-3" d="M440,83.26H333.47a.85.85,0,0,1,0-1.7H440a.85.85,0,1,1,0,1.7Z"/><path class="cls-8" d="M329.34,50.94a1.89,1.89,0,0,1-1.89-1.89V30.21a1.89,1.89,0,0,1,3.78,0V49.05A1.89,1.89,0,0,1,329.34,50.94Z"/><path class="cls-3" d="M381.93,116.66h-7.71a.65.65,0,1,1,0-1.3h7.71a.65.65,0,0,1,0,1.3Z"/><path class="cls-3" d="M387.77,116.66h-2.7a.65.65,0,1,1,0-1.3h2.7a.65.65,0,0,1,0,1.3Z"/><path class="cls-13" d="M59.59,168.35V170c0,2.23,1.5,4,3.36,4H78.72c1.85,0,3.36-1.81,3.36-4v-1.69"/><path class="cls-3" d="M78.52,175.12H63.33a4,4,0,0,1-4-4,.76.76,0,0,1,1.52,0,2.48,2.48,0,0,0,2.48,2.48H78.52A2.49,2.49,0,0,0,81,171.12a.76.76,0,1,1,1.51,0A4,4,0,0,1,78.52,175.12Z"/><circle class="cls-3" cx="66.27" cy="170.03" r="1.04"/><path class="cls-3" d="M75.51,170.54H70a.51.51,0,1,1,0-1h5.51a.51.51,0,1,1,0,1Z"/><path class="cls-3" d="M96.63,272.43H42.43a3.77,3.77,0,0,1-3.77-3.77V171.55a3.77,3.77,0,0,1,3.77-3.77h17a.81.81,0,1,1,0,1.62h-17a2.15,2.15,0,0,0-2.15,2.15v97.11a2.15,2.15,0,0,0,2.15,2.15h54.2a2.15,2.15,0,0,0,2.15-2.15V171.55a2.15,2.15,0,0,0-2.15-2.15H82.74a.81.81,0,0,1,0-1.62H96.63a3.78,3.78,0,0,1,3.78,3.77v97.11A3.78,3.78,0,0,1,96.63,272.43Z"/><path class="cls-3" d="M99.37,279.21H39.69a7.62,7.62,0,0,1-7.61-7.62v-103A7.62,7.62,0,0,1,39.69,161H65.05a.82.82,0,0,1,0,1.63H39.69a6,6,0,0,0-6,6v103a6,6,0,0,0,6,6H99.37a6,6,0,0,0,6-6v-103a6,6,0,0,0-6-6H80.84a.82.82,0,0,1,0-1.63H99.37a7.63,7.63,0,0,1,7.62,7.61v103A7.63,7.63,0,0,1,99.37,279.21Z"/><rect class="cls-2" x="210.17" y="60.44" width="12.28" height="21.85"/><rect class="cls-2" x="243.07" y="47.85" width="12.28" height="34.45"/><rect class="cls-2" x="226.62" y="53.16" width="12.28" height="29.14"/><path class="cls-3" d="M222.45,83H210.17a.74.74,0,0,1-.74-.75V60.44a.74.74,0,0,1,.74-.74h12.28a.75.75,0,0,1,.75.74V82.29A.75.75,0,0,1,222.45,83Zm-11.53-1.49H221.7V61.19H210.92Z"/><path class="cls-3" d="M255.35,83H243.07a.74.74,0,0,1-.74-.75V47.85a.75.75,0,0,1,.74-.75h12.28a.76.76,0,0,1,.75.75V82.29A.75.75,0,0,1,255.35,83Zm-11.53-1.49H254.6v-33H243.82Z"/><path class="cls-3" d="M238.9,83H226.62a.74.74,0,0,1-.74-.75V53.16a.74.74,0,0,1,.74-.75H238.9a.75.75,0,0,1,.75.75V82.29A.75.75,0,0,1,238.9,83Zm-11.53-1.49h10.78V53.9H227.37Z"/><path class="cls-3" d="M213.56,55.38a.76.76,0,0,1-.66-.39.75.75,0,0,1,.29-1l17.64-9.91a.62.62,0,0,1,.27-.09l19.07-2.52a.75.75,0,0,1,.84.65.75.75,0,0,1-.64.85l-18.93,2.5-17.51,9.83A.71.71,0,0,1,213.56,55.38Z"/><rect class="cls-8" x="54.22" y="193.37" width="63.25" height="44.8" rx="4.28"/><path class="cls-3" d="M90.17,200.4H61.09a.82.82,0,0,1-.81-.82.81.81,0,0,1,.81-.81H90.17a.82.82,0,0,1,.82.81A.82.82,0,0,1,90.17,200.4Z"/><path class="cls-3" d="M83.17,206.32H61.09a.81.81,0,0,1,0-1.62H83.17a.81.81,0,1,1,0,1.62Z"/><path class="cls-3" d="M74.17,212.25H61.09a.81.81,0,1,1,0-1.62H74.17a.81.81,0,1,1,0,1.62Z"/><path class="cls-24" d="M74.19,237.73H63.38a1.8,1.8,0,1,1,0-3.6H74.19a1.8,1.8,0,1,1,0,3.6Z"/><path class="cls-24" d="M107.22,237.73H96.41a1.8,1.8,0,1,1,0-3.6h10.81a1.8,1.8,0,1,1,0,3.6Z"/><path class="cls-24" d="M87,237.73H82.15a1.8,1.8,0,0,1,0-3.6H87a1.8,1.8,0,0,1,0,3.6Z"/><path class="cls-3" d="M113.19,238.61H58.5a5.1,5.1,0,0,1-5.09-5.09V197.27a5.1,5.1,0,0,1,5.09-5.09h54.69a5.1,5.1,0,0,1,5.09,5.09v36.25A5.1,5.1,0,0,1,113.19,238.61ZM58.5,193.81A3.47,3.47,0,0,0,55,197.27v36.25A3.47,3.47,0,0,0,58.5,237h54.69a3.47,3.47,0,0,0,3.47-3.46V197.27a3.47,3.47,0,0,0-3.47-3.46Z"/><ellipse class="cls-25" cx="239.49" cy="269.43" rx="30.36" ry="2.98"/><ellipse class="cls-26" cx="239.49" cy="269.43" rx="20.32" ry="1.16"/><path class="cls-3" d="M239.65,277.64c-20.94,0-43.18-2.7-43.18-7.71s22.24-7.71,43.18-7.71,43.17,2.7,43.17,7.71S260.58,277.64,239.65,277.64Zm0-14.12c-26,0-41.88,3.74-41.88,6.41s15.93,6.41,41.88,6.41,41.87-3.73,41.87-6.41S265.59,263.52,239.65,263.52Z"/><path class="cls-3" d="M239.49,273c-3.17,0-31-.1-31-3.61s27.8-3.6,31-3.6,31,.1,31,3.6S242.66,273,239.49,273Zm-29.59-3.61c1.69,1,12.33,2.37,29.59,2.37s27.91-1.33,29.6-2.37c-1.69-1-12.33-2.36-29.6-2.36S211.59,268.4,209.9,269.43Zm59.37.15h0Z"/><path class="cls-27" d="M206.34,164.93c17-5.67,36.23,6,41.91,23,7.83,23.45-4.55,71-6.88,79.46a2.57,2.57,0,0,1-1.67,1.75h0a2.58,2.58,0,0,1-2.38-.4c-7-5.4-45.4-35.94-53.23-59.4-5.67-17,2.66-37.92,19.66-43.59"/><path class="cls-28" d="M241.18,267.25a2.53,2.53,0,0,1-1.65,1.74L201.81,166.27c.57-.25,1.16-.47,1.76-.67l2.58-.86c17-5.67,36.23,6,41.91,23C255.89,211.24,243.51,258.75,241.18,267.25Z"/><circle class="cls-8" cx="216.25" cy="198.93" r="21.8"/><path class="cls-19" d="M196.71,207a1.54,1.54,0,0,1-1.45-1,22.13,22.13,0,1,1,42-14,1.52,1.52,0,0,1-2.88,1A19.09,19.09,0,0,0,198.15,205a1.53,1.53,0,0,1-1,1.92A1.66,1.66,0,0,1,196.71,207Z"/><path class="cls-29" d="M239.13,269a4.47,4.47,0,0,1-2.59-1.4c-.14-.12-.28-.24-.39-.32-2.58-2-9.43-7.43-17.29-14.59a1.07,1.07,0,0,1-.07-1.5,1.05,1.05,0,0,1,1.5-.07c7.8,7.11,14.6,12.49,17.16,14.48.14.1.3.24.48.4a9,9,0,0,0,1,.8,8.59,8.59,0,0,0,.35-1.26c.05-.23.09-.44.14-.61.8-2.91,2.86-10.74,4.76-20.53a1.06,1.06,0,1,1,2.09.41c-1.92,9.85-4,17.75-4.8,20.68,0,.14-.08.31-.12.49-.23,1.08-.55,2.55-1.71,2.94A1.68,1.68,0,0,1,239.13,269Z"/><path class="cls-29" d="M215.71,223.66a27.39,27.39,0,0,1-3.49-.23,1.17,1.17,0,0,1,.3-2.32,24,24,0,0,0,20.9-7.48,1.16,1.16,0,1,1,1.63,1.66,28,28,0,0,1-10.68,7A27.38,27.38,0,0,1,215.71,223.66Z"/><circle class="cls-3" cx="207.85" cy="242.59" r="0.91"/><circle class="cls-3" cx="186.98" cy="216.11" r="0.91"/><circle class="cls-3" cx="236.66" cy="207.12" r="0.91"/><path class="cls-29" d="M196.13,188.8a1.18,1.18,0,0,1-1-1.72,22.85,22.85,0,0,1,13-11.06,1.16,1.16,0,0,1,1.48.74,1.17,1.17,0,0,1-.74,1.48,20.56,20.56,0,0,0-11.71,9.93A1.16,1.16,0,0,1,196.13,188.8Z"/><path class="cls-3" d="M216.23,221.55a22.63,22.63,0,0,1-22.09-27.35.81.81,0,0,1,1-.63.83.83,0,0,1,.63,1,21,21,0,0,0,38.2,15.7.81.81,0,0,1,1.37.88,22.66,22.66,0,0,1-19.07,10.43Z"/><path class="cls-29" d="M246.07,240.62l-.21,0a1.17,1.17,0,0,1-.94-1.36,220.7,220.7,0,0,0,3-22.91,1.17,1.17,0,1,1,2.33.17,225.32,225.32,0,0,1-3,23.15A1.17,1.17,0,0,1,246.07,240.62Z"/><path class="cls-8" d="M183.89,197.23h-.06a1.5,1.5,0,0,1-1.44-1.55c0-.61.62-15,11.28-24.4a1.5,1.5,0,1,1,2,2.25c-9.67,8.57-10.27,22.12-10.27,22.25A1.51,1.51,0,0,1,183.89,197.23Z"/><path class="cls-8" d="M205.54,240a1.49,1.49,0,0,1-1.09-.47,157.93,157.93,0,0,1-11.57-13.5,1.5,1.5,0,1,1,2.4-1.81,153.48,153.48,0,0,0,11.34,13.24,1.5,1.5,0,0,1-1.08,2.54Z"/><path class="cls-3" d="M238.89,270.14a3.36,3.36,0,0,1-2.06-.71,315.72,315.72,0,0,1-27.41-24,.81.81,0,1,1,1.14-1.15,316.91,316.91,0,0,0,27.26,23.89,1.79,1.79,0,0,0,1.63.27,1.74,1.74,0,0,0,1.13-1.2c2.51-9.13,14.61-55.86,6.89-79-5.78-17.33-24.88-27.86-40.87-22.53a.8.8,0,0,1-1-.51.82.82,0,0,1,.51-1c16.81-5.61,36.87,5.4,42.94,23.56,7.86,23.57-4.34,70.72-6.87,79.93A3.38,3.38,0,0,1,240,270,3.29,3.29,0,0,1,238.89,270.14Z"/><path class="cls-3" d="M185.69,214.22a.83.83,0,0,1-.74-.47,43.57,43.57,0,0,1-1.63-4.1A37.73,37.73,0,0,1,184.67,183c3.84-8.83,10.52-15.22,18.83-18a.82.82,0,0,1,.51,1.55c-16,5.33-24.94,25.22-19.15,42.56a39.32,39.32,0,0,0,1.57,3.94.81.81,0,0,1-.4,1.08A.83.83,0,0,1,185.69,214.22Z"/><path class="cls-3" d="M205.39,241a.78.78,0,0,1-.58-.26c-7.3-7.68-12.95-14.8-16.78-21.17a.81.81,0,0,1,.28-1.12.83.83,0,0,1,1.12.28C193.19,225,198.77,232,206,239.58a.81.81,0,0,1,0,1.15A.79.79,0,0,1,205.39,241Z"/><path class="cls-3" d="M237.68,203.74h-.15a.82.82,0,0,1-.65-.95,21,21,0,0,0-39.19-13.64.81.81,0,0,1-1.1.34.83.83,0,0,1-.34-1.1,22.62,22.62,0,0,1,41.45,3.39,22.75,22.75,0,0,1,.78,11.31A.81.81,0,0,1,237.68,203.74Z"/><circle class="cls-30" cx="355.88" cy="25.66" r="23.15"/><circle class="cls-31" cx="346.55" cy="12.29" r="3.06"/><circle class="cls-31" cx="350.86" cy="16.96" r="1.66"/><path class="cls-8" d="M354.54,34.82a2,2,0,0,1-1.33-.51l-7.15-6.4a2,2,0,0,1,2.66-3l5.58,5,8.51-10.66a2,2,0,1,1,3.12,2.49l-9.82,12.32a2,2,0,0,1-1.4.74Z"/><circle class="cls-3" cx="337.51" cy="11.68" r="1"/><path class="cls-32" d="M360.1,48.57a1.51,1.51,0,0,1-1.49-1.34,1.49,1.49,0,0,1,1.32-1.65c.36,0,8.53-1.11,13.7-10.09a1.5,1.5,0,0,1,2.6,1.5c-6,10.35-15.56,11.52-16,11.57Z"/><path class="cls-32" d="M377,32.33a1.69,1.69,0,0,1-.5-.08,1.52,1.52,0,0,1-.92-1.92,21.7,21.7,0,0,0,.77-4.37,1.5,1.5,0,0,1,3,.23,25.34,25.34,0,0,1-.93,5.14A1.5,1.5,0,0,1,377,32.33Z"/><path class="cls-33" d="M352.21,48.27a1.33,1.33,0,0,1-.28,0,24.88,24.88,0,0,1-5-1.47,1.5,1.5,0,0,1,1.29-2.71,21.86,21.86,0,0,0,4.26,1.23,1.5,1.5,0,0,1-.27,3Z"/><path class="cls-3" d="M355.88,49.72a24.06,24.06,0,0,1-21-35.84.89.89,0,0,1,1.22-.35.91.91,0,0,1,.35,1.23,22.24,22.24,0,1,0,3.73-4.9.9.9,0,0,1-1.27,0,.91.91,0,0,1,0-1.28,24.06,24.06,0,1,1,16.94,41.14Z"/><circle class="cls-30" cx="101.96" cy="251.44" r="23.15"/><circle class="cls-31" cx="92.63" cy="238.06" r="3.06"/><circle class="cls-31" cx="96.94" cy="242.74" r="1.66"/><path class="cls-8" d="M100.62,260.6a2,2,0,0,1-1.33-.51l-7.16-6.4a2,2,0,0,1,2.67-3l5.58,5,8.5-10.66a2,2,0,0,1,3.13,2.5l-9.83,12.31a2,2,0,0,1-1.39.75Z"/><circle class="cls-3" cx="83.59" cy="237.45" r="1"/><path class="cls-32" d="M106.18,274.34a1.5,1.5,0,0,1-.17-3c.36,0,8.53-1.1,13.69-10.08a1.5,1.5,0,0,1,2-.55,1.48,1.48,0,0,1,.55,2c-6,10.36-15.55,11.53-16,11.57Z"/><path class="cls-32" d="M123.07,258.11a1.41,1.41,0,0,1-.49-.09,1.49,1.49,0,0,1-.92-1.91,22.51,22.51,0,0,0,.77-4.38,1.47,1.47,0,0,1,1.61-1.37,1.5,1.5,0,0,1,1.38,1.61,25.28,25.28,0,0,1-.93,5.13A1.51,1.51,0,0,1,123.07,258.11Z"/><path class="cls-33" d="M98.29,274a1.33,1.33,0,0,1-.28,0,25.09,25.09,0,0,1-5-1.47,1.5,1.5,0,0,1,1.3-2.71,22.5,22.5,0,0,0,4.26,1.24,1.5,1.5,0,0,1-.27,3Z"/><path class="cls-3" d="M102,275.49a24.06,24.06,0,0,1-21-35.84.91.91,0,0,1,1.58.89,22.24,22.24,0,1,0,3.73-4.9A.9.9,0,1,1,85,234.36,24.05,24.05,0,1,1,102,275.49Z"/><circle class="cls-30" cx="423.84" cy="180.28" r="23.15"/><circle class="cls-31" cx="414.51" cy="166.91" r="3.06"/><circle class="cls-31" cx="418.82" cy="171.59" r="1.66"/><path class="cls-8" d="M422.5,189.44a2,2,0,0,1-1.33-.51l-7.15-6.4a2,2,0,0,1,2.66-3l5.58,5,8.51-10.66a2,2,0,1,1,3.12,2.49l-9.82,12.32a2,2,0,0,1-1.4.75Z"/><circle class="cls-3" cx="405.47" cy="166.3" r="1"/><path class="cls-32" d="M428.06,203.19a1.51,1.51,0,0,1-1.49-1.34,1.49,1.49,0,0,1,1.32-1.65h0c.35,0,8.52-1.1,13.69-10.08a1.5,1.5,0,0,1,2.61,1.49c-6,10.35-15.56,11.52-16,11.57Z"/><path class="cls-32" d="M445,187a1.42,1.42,0,0,1-.5-.08,1.51,1.51,0,0,1-.92-1.91,21.9,21.9,0,0,0,.77-4.38,1.49,1.49,0,0,1,1.61-1.38,1.51,1.51,0,0,1,1.38,1.62,25.4,25.4,0,0,1-.93,5.13A1.49,1.49,0,0,1,445,187Z"/><path class="cls-33" d="M420.17,202.89a1.33,1.33,0,0,1-.28,0,24.88,24.88,0,0,1-5-1.47,1.5,1.5,0,1,1,1.29-2.71,21.86,21.86,0,0,0,4.26,1.23,1.51,1.51,0,0,1,1.2,1.76A1.49,1.49,0,0,1,420.17,202.89Z"/><path class="cls-3" d="M423.84,204.34a24.06,24.06,0,0,1-21-35.84.89.89,0,0,1,1.22-.35.91.91,0,0,1,.35,1.23,22.24,22.24,0,1,0,3.73-4.9.9.9,0,0,1-1.27,0,.91.91,0,0,1,0-1.28,24.06,24.06,0,1,1,16.94,41.14Z"/></g></g></svg>